<svg  fill="url(#gradient)" stroke="none" stroke-width="30" viewBox="0 0 486 486" xmlns="http://www.w3.org/2000/svg">
<path d="M232.193 90.0566L242.8 100.663L253.407 90.0566L264.007 79.4566C286.902 56.561 317.29 43.95 349.6 43.95C381.822 43.95 412.083 56.4681 434.852 79.4152L434.883 79.4463L434.914 79.4773C457.766 102.24 470.3 132.607 470.3 164.95C470.3 197.248 457.697 227.539 434.793 250.443L244.293 440.943C243.912 441.324 243.374 441.55 242.8 441.55C242.14 441.55 241.663 441.3 241.407 441.043L241.406 441.043L241.007 440.643L241.006 440.643L50.5066 250.143C27.6026 227.239 15 196.948 15 164.65C15 132.324 27.5227 102.04 50.4066 79.1566C73.2946 56.2686 103.58 43.75 135.8 43.75C168.109 43.75 198.498 56.361 221.393 79.2566L232.193 90.0566Z"/>
<linearGradient id="gradient" x1="242.65" y1="28.75" x2="242.65" y2="456.55" gradientUnits="userSpaceOnUse">
<stop stop-color="#9356DC"/>
<stop offset="1" stop-color="#FF79DA"/>
</linearGradient>
</svg>
